<mxfile host="Electron" agent="Mozilla/5.0 (Macintosh; Intel Mac OS X 10_15_7) AppleWebKit/537.36 (KHTML, like Gecko) draw.io/24.7.5 Chrome/126.0.6478.183 Electron/31.3.0 Safari/537.36" version="24.7.5">
  <diagram name="페이지-1" id="QtaYqm6Hoo6YhlCWTHok">
    <mxGraphModel dx="1114" dy="894" grid="1" gridSize="10" guides="1" tooltips="1" connect="1" arrows="1" fold="1" page="1" pageScale="1" pageWidth="827" pageHeight="1169" math="0" shadow="0">
      <root>
        <mxCell id="0" />
        <mxCell id="1" parent="0" />
        <mxCell id="ojkQTGePPDkCzFfEA4uA-32" value="애플리케이션 계층" style="rounded=0;whiteSpace=wrap;html=1;fillColor=#dae8fc;strokeColor=none;opacity=80;fontStyle=1;verticalAlign=top;fontSize=13;" vertex="1" parent="1">
          <mxGeometry x="208" y="50" width="534" height="120" as="geometry" />
        </mxCell>
        <mxCell id="ojkQTGePPDkCzFfEA4uA-34" value="도메인 계층" style="rounded=0;whiteSpace=wrap;html=1;fillColor=#f8cecc;strokeColor=none;opacity=80;fontStyle=1;verticalAlign=bottom;" vertex="1" parent="1">
          <mxGeometry x="208" y="190" width="532" height="230" as="geometry" />
        </mxCell>
        <mxCell id="ojkQTGePPDkCzFfEA4uA-35" value="영속성 계층" style="rounded=0;whiteSpace=wrap;html=1;fillColor=#d5e8d4;strokeColor=none;opacity=80;fontStyle=1;fontSize=13;verticalAlign=top;" vertex="1" parent="1">
          <mxGeometry x="772" y="50" width="150" height="370" as="geometry" />
        </mxCell>
        <mxCell id="ojkQTGePPDkCzFfEA4uA-36" value="웹 계층" style="rounded=0;whiteSpace=wrap;html=1;fillColor=#d5e8d4;strokeColor=none;opacity=80;verticalAlign=top;fontStyle=1;fontSize=13;" vertex="1" parent="1">
          <mxGeometry x="22" y="50" width="150" height="370" as="geometry" />
        </mxCell>
        <mxCell id="ojkQTGePPDkCzFfEA4uA-67" style="edgeStyle=orthogonalEdgeStyle;rounded=0;orthogonalLoop=1;jettySize=auto;html=1;entryX=1;entryY=0.5;entryDx=0;entryDy=0;endArrow=block;endFill=1;" edge="1" parent="1" source="ojkQTGePPDkCzFfEA4uA-38" target="ojkQTGePPDkCzFfEA4uA-61">
          <mxGeometry relative="1" as="geometry">
            <Array as="points">
              <mxPoint x="663" y="338" />
            </Array>
          </mxGeometry>
        </mxCell>
        <mxCell id="ojkQTGePPDkCzFfEA4uA-38" value="&lt;i&gt;&amp;lt;&amp;lt;interface&amp;gt;&amp;gt;&lt;/i&gt;&lt;div&gt;UpdateAccountState&lt;/div&gt;&lt;div&gt;Port&lt;/div&gt;" style="rounded=0;whiteSpace=wrap;html=1;" vertex="1" parent="1">
          <mxGeometry x="598" y="90" width="130" height="60" as="geometry" />
        </mxCell>
        <mxCell id="ojkQTGePPDkCzFfEA4uA-62" style="edgeStyle=orthogonalEdgeStyle;rounded=0;orthogonalLoop=1;jettySize=auto;html=1;endArrow=block;endFill=0;" edge="1" parent="1" source="ojkQTGePPDkCzFfEA4uA-39" target="ojkQTGePPDkCzFfEA4uA-61">
          <mxGeometry relative="1" as="geometry" />
        </mxCell>
        <mxCell id="ojkQTGePPDkCzFfEA4uA-39" value="Account" style="rounded=0;whiteSpace=wrap;html=1;" vertex="1" parent="1">
          <mxGeometry x="410" y="210" width="130" height="60" as="geometry" />
        </mxCell>
        <mxCell id="ojkQTGePPDkCzFfEA4uA-40" style="edgeStyle=orthogonalEdgeStyle;rounded=0;orthogonalLoop=1;jettySize=auto;html=1;entryX=1;entryY=0.5;entryDx=0;entryDy=0;endArrow=block;endFill=0;" edge="1" parent="1" source="ojkQTGePPDkCzFfEA4uA-42" target="ojkQTGePPDkCzFfEA4uA-38">
          <mxGeometry relative="1" as="geometry">
            <mxPoint x="734" y="120" as="targetPoint" />
          </mxGeometry>
        </mxCell>
        <mxCell id="ojkQTGePPDkCzFfEA4uA-41" style="edgeStyle=orthogonalEdgeStyle;rounded=0;orthogonalLoop=1;jettySize=auto;html=1;endArrow=block;endFill=1;" edge="1" parent="1" source="ojkQTGePPDkCzFfEA4uA-42" target="ojkQTGePPDkCzFfEA4uA-56">
          <mxGeometry relative="1" as="geometry" />
        </mxCell>
        <mxCell id="ojkQTGePPDkCzFfEA4uA-42" value="AccountPersistence&lt;div&gt;Adapter&lt;/div&gt;" style="rounded=0;whiteSpace=wrap;html=1;" vertex="1" parent="1">
          <mxGeometry x="782" y="90" width="130" height="60" as="geometry" />
        </mxCell>
        <mxCell id="ojkQTGePPDkCzFfEA4uA-43" style="edgeStyle=orthogonalEdgeStyle;rounded=0;orthogonalLoop=1;jettySize=auto;html=1;endArrow=block;endFill=0;" edge="1" parent="1" source="ojkQTGePPDkCzFfEA4uA-46">
          <mxGeometry relative="1" as="geometry">
            <mxPoint x="350" y="120" as="targetPoint" />
          </mxGeometry>
        </mxCell>
        <mxCell id="ojkQTGePPDkCzFfEA4uA-44" style="edgeStyle=orthogonalEdgeStyle;rounded=0;orthogonalLoop=1;jettySize=auto;html=1;endArrow=block;endFill=1;" edge="1" parent="1" source="ojkQTGePPDkCzFfEA4uA-46" target="ojkQTGePPDkCzFfEA4uA-38">
          <mxGeometry relative="1" as="geometry" />
        </mxCell>
        <mxCell id="ojkQTGePPDkCzFfEA4uA-45" style="edgeStyle=orthogonalEdgeStyle;rounded=0;orthogonalLoop=1;jettySize=auto;html=1;endArrow=block;endFill=1;" edge="1" parent="1" source="ojkQTGePPDkCzFfEA4uA-46" target="ojkQTGePPDkCzFfEA4uA-39">
          <mxGeometry relative="1" as="geometry" />
        </mxCell>
        <mxCell id="ojkQTGePPDkCzFfEA4uA-46" value="SendMoney&lt;div&gt;Service&lt;/div&gt;" style="rounded=0;whiteSpace=wrap;html=1;" vertex="1" parent="1">
          <mxGeometry x="410" y="90" width="130" height="60" as="geometry" />
        </mxCell>
        <mxCell id="ojkQTGePPDkCzFfEA4uA-47" style="edgeStyle=orthogonalEdgeStyle;rounded=0;orthogonalLoop=1;jettySize=auto;html=1;entryX=0.5;entryY=0;entryDx=0;entryDy=0;endArrow=block;endFill=1;" edge="1" parent="1" source="ojkQTGePPDkCzFfEA4uA-49" target="ojkQTGePPDkCzFfEA4uA-55">
          <mxGeometry relative="1" as="geometry" />
        </mxCell>
        <mxCell id="ojkQTGePPDkCzFfEA4uA-48" style="edgeStyle=orthogonalEdgeStyle;rounded=0;orthogonalLoop=1;jettySize=auto;html=1;entryX=0;entryY=0.5;entryDx=0;entryDy=0;endArrow=block;endFill=1;" edge="1" parent="1" source="ojkQTGePPDkCzFfEA4uA-49" target="ojkQTGePPDkCzFfEA4uA-51">
          <mxGeometry relative="1" as="geometry" />
        </mxCell>
        <mxCell id="ojkQTGePPDkCzFfEA4uA-49" value="Account&lt;div&gt;Controller&lt;/div&gt;" style="rounded=0;whiteSpace=wrap;html=1;" vertex="1" parent="1">
          <mxGeometry x="32" y="90" width="130" height="60" as="geometry" />
        </mxCell>
        <mxCell id="ojkQTGePPDkCzFfEA4uA-65" style="edgeStyle=orthogonalEdgeStyle;rounded=0;orthogonalLoop=1;jettySize=auto;html=1;entryX=0;entryY=0.5;entryDx=0;entryDy=0;endArrow=block;endFill=1;" edge="1" parent="1" source="ojkQTGePPDkCzFfEA4uA-51" target="ojkQTGePPDkCzFfEA4uA-61">
          <mxGeometry relative="1" as="geometry">
            <Array as="points">
              <mxPoint x="284" y="338" />
            </Array>
          </mxGeometry>
        </mxCell>
        <mxCell id="ojkQTGePPDkCzFfEA4uA-51" value="&lt;i&gt;&amp;lt;&amp;lt;interface&amp;gt;&amp;gt;&lt;/i&gt;&lt;div&gt;SendMoney&lt;/div&gt;&lt;div&gt;UseCase&lt;/div&gt;" style="rounded=0;whiteSpace=wrap;html=1;" vertex="1" parent="1">
          <mxGeometry x="219" y="90" width="130" height="60" as="geometry" />
        </mxCell>
        <mxCell id="ojkQTGePPDkCzFfEA4uA-52" value="" style="endArrow=none;dashed=1;html=1;rounded=0;strokeWidth=2;" edge="1" parent="1">
          <mxGeometry width="50" height="50" relative="1" as="geometry">
            <mxPoint x="190" y="420" as="sourcePoint" />
            <mxPoint x="190" y="50" as="targetPoint" />
          </mxGeometry>
        </mxCell>
        <mxCell id="ojkQTGePPDkCzFfEA4uA-53" value="" style="endArrow=none;dashed=1;html=1;rounded=0;strokeWidth=2;" edge="1" parent="1">
          <mxGeometry width="50" height="50" relative="1" as="geometry">
            <mxPoint x="760" y="420" as="sourcePoint" />
            <mxPoint x="756" y="50" as="targetPoint" />
          </mxGeometry>
        </mxCell>
        <mxCell id="ojkQTGePPDkCzFfEA4uA-54" value="" style="endArrow=none;dashed=1;html=1;rounded=0;strokeWidth=2;" edge="1" parent="1">
          <mxGeometry width="50" height="50" relative="1" as="geometry">
            <mxPoint x="190" y="180" as="sourcePoint" />
            <mxPoint x="760" y="180" as="targetPoint" />
          </mxGeometry>
        </mxCell>
        <mxCell id="ojkQTGePPDkCzFfEA4uA-66" style="edgeStyle=orthogonalEdgeStyle;rounded=0;orthogonalLoop=1;jettySize=auto;html=1;entryX=0;entryY=0.75;entryDx=0;entryDy=0;endArrow=block;endFill=0;" edge="1" parent="1" source="ojkQTGePPDkCzFfEA4uA-55" target="ojkQTGePPDkCzFfEA4uA-61">
          <mxGeometry relative="1" as="geometry">
            <Array as="points">
              <mxPoint x="230" y="353" />
              <mxPoint x="230" y="353" />
            </Array>
          </mxGeometry>
        </mxCell>
        <mxCell id="ojkQTGePPDkCzFfEA4uA-55" value="웹 모델" style="rounded=0;whiteSpace=wrap;html=1;" vertex="1" parent="1">
          <mxGeometry x="32" y="308" width="130" height="60" as="geometry" />
        </mxCell>
        <mxCell id="ojkQTGePPDkCzFfEA4uA-69" style="edgeStyle=orthogonalEdgeStyle;rounded=0;orthogonalLoop=1;jettySize=auto;html=1;entryX=1;entryY=0.75;entryDx=0;entryDy=0;endArrow=block;endFill=0;" edge="1" parent="1" source="ojkQTGePPDkCzFfEA4uA-56" target="ojkQTGePPDkCzFfEA4uA-61">
          <mxGeometry relative="1" as="geometry">
            <Array as="points">
              <mxPoint x="720" y="353" />
              <mxPoint x="720" y="353" />
            </Array>
          </mxGeometry>
        </mxCell>
        <mxCell id="ojkQTGePPDkCzFfEA4uA-56" value="영속성 모델" style="rounded=0;whiteSpace=wrap;html=1;" vertex="1" parent="1">
          <mxGeometry x="782" y="308" width="130" height="60" as="geometry" />
        </mxCell>
        <mxCell id="ojkQTGePPDkCzFfEA4uA-61" value="&amp;lt;&amp;lt;interface&amp;gt;&amp;gt;&lt;div&gt;AccountState&lt;/div&gt;" style="rounded=0;whiteSpace=wrap;html=1;" vertex="1" parent="1">
          <mxGeometry x="410" y="308" width="130" height="60" as="geometry" />
        </mxCell>
      </root>
    </mxGraphModel>
  </diagram>
</mxfile>
